<?xml version="1.0" encoding="UTF-8"?>
<svg xmlns="http://www.w3.org/2000/svg" version="1.1" viewBox="0 0 500 500">
  <defs>
    <style>
      .cls-1 {
        fill: #f4e7b0;
      }

      .cls-2 {
        fill: #f7d415;
      }

      .cls-2, .cls-3, .cls-4 {
        stroke: #000;
        stroke-miterlimit: 10;
        stroke-width: 4px;
      }

      .cls-5 {
        fill: #eadca4;
      }

      .cls-4 {
        fill: #d1aa02;
      }

      .cls-6 {
        fill: #ecc400;
      }

      .cls-7 {
        fill: #fff5ca;
      }
    </style>
  </defs>
  <!-- Generator: Adobe Illustrator 28.7.1, SVG Export Plug-In . SVG Version: 1.2.0 Build 142)  -->
  <g>
    <g id="Layer_1">
      <g>
        <path class="cls-2" d="M232,259.7c-4.7,65.8-52.9,96.9-53.6,97.4-2.1-.6-4.2-1-6.3-1.2,11-4.8,33.8-21.1,43.4-75.1.8-2,1.8-3.9,3-5.8l.5-.7c.1-.2.3-.4.4-.6.4-.6.8-1.1,1.3-1.7.4-.5.8-1,1.2-1.5,2.6-3.2,5.4-6.3,8.4-9.2.3-.3.5-.5.8-.7s.6-.6.9-.8Z"/>
        <path class="cls-4" d="M291.5,151.3v.2c.3.4.4.9.6,1.3,0,.1,0,.2.1.4,0,.2.2.5.3.7.2.5.4,1,.6,1.6.2.5.4,1,.6,1.5.2.4.3.8.5,1.3.2.6.4,1.2.7,1.8.2.6.4,1.1.6,1.7.1.3.2.6.3.9.4,1.2.8,2.4,1.3,3.5l.5,1.4c.1.3.2.6.3.9.2.7.4,1.3.7,2,.2.7.4,1.3.6,2,.2.7.4,1.3.6,2s.4,1.3.6,2c.2.6.4,1.2.5,1.8.2.8.4,1.5.7,2.3.2.7.4,1.4.6,2.1.2.8.4,1.5.6,2.3.2.6.3,1.2.5,1.8.2.9.4,1.7.7,2.6.1.6.3,1.1.4,1.7.2.7.4,1.5.6,2.2.2.8.3,1.4.5,2.1.1.6.3,1.3.4,1.9.2.8.4,1.6.5,2.4.2.7.3,1.5.4,2.2s.3,1.5.4,2.2c.1.7.3,1.4.4,2.1.2,1,.4,2,.5,3,0,.5.2,1,.3,1.5.2,1.5.5,2.9.7,4.4.1.7.2,1.5.3,2.2,0,.4.1.8.2,1.1,0,.6.2,1.1.2,1.7s.1,1.1.2,1.6c0,.7.2,1.5.3,2.2,0,.7.2,1.4.2,2.1,0,.1,0,.2,0,.4,0,.7.1,1.3.2,2,.1,1.4.3,2.8.4,4.3v.2c.2,2.2.3,4.5.4,6.7,0,.7,0,1.5,0,2.2,0,.7,0,1.5,0,2.2,0,.3,0,.6,0,1,0,.3,0,.7,0,1.1,0,.8,0,1.6,0,2.4v2.2c0,.7,0,1.5,0,2.2,0,.7,0,1.5,0,2.2,0,2.2-.2,4.4-.3,6.6,0,.7,0,1.5-.2,2.2,0,.7-.1,1.5-.2,2.2,0,.7-.1,1.5-.2,2.2,0,.7-.2,1.5-.2,2.2,0,.7-.2,1.3-.3,2,0,.1,0,.2,0,.4,0,.6-.2,1.3-.3,1.9,0,.7-.2,1.4-.3,2.1-.2,1-.3,2.1-.5,3.1,0,.1,0,.2,0,.3-.2,1-.4,1.9-.6,2.9h0c-.9,4.7-2.2,9.4-3.6,13.9-12.7,39.5-60.2,100.6-127.6,86-.3,0-.6-.1-.9-.2,0,0-19.9-11.6-10.6-24.6,0,0,2.4-.3,6.2-2,2.1.2,4.2.6,6.3,1.2.7-.5,48.9-31.6,53.6-97.4-.3.3-.6.6-.9.8-.3.3-.5.5-.8.7-3,2.9-5.8,6-8.4,9.2-.4.5-.8,1-1.2,1.5-.4.6-.9,1.1-1.3,1.7-.1.2-.3.4-.4.6l-.5.7c-1.2,1.8-2.2,3.7-3,5.8.9-4.9,1.6-10,2.3-15.5.9-8,1.6-16.6,1.9-26.1,0-.3,0-.7,0-1,0-1.1,0-2.3,0-3.5,0-.6,0-1.1,0-1.7,0-3.3,0-6.6,0-10.1v-2.4c-.7-81,1.2-122.5,26.3-121h1c.6.1,1.3.2,2,.4s1.4.3,2.1.4c.4,0,.7.2,1.1.3.7.2,1.5.4,2.2.7.4.1.8.3,1.2.4.3.1.6.2.9.3.2,0,.4.2.6.2.3.1.6.2.9.4,1.5.7,2.8,1.5,4.1,2.4.3.2.6.5.9.8.3.3.6.5,1,.8.3.3.6.6,1,.9.3.3.6.5.8.8s.8.8,1.1,1.2c.3.4.7.7,1,1.1l.3.4c.6.7,1.2,1.4,1.8,2.2.3.3.5.6.8.9.4.6.9,1.1,1.3,1.7.1.2.2.3.4.5.7,1,1.5,2,2.2,3.1,1.1,1.7,2.2,3.4,3.4,5.3,0,.1.2.3.3.5.4.7.8,1.4,1.3,2.1l.2.3c0,0,0,.2.2.3.3.4.5.9.7,1.3,0,.2.2.4.3.5,3.8,7,7.3,14.2,10.3,21.6Z"/>
        <path class="cls-6" d="M269.1,258.3s19.6,80.7-84.3,116.8l-11.6-16.1c10.4-7.2,17.6-14.5,22.4-20,14.2-16.4,20.1-32.6,26.7-50.8,0,0,3.5-9.6,4.9-18.2.7-4.5,1-9.2,1-9.2,0-1.4,0-1,.2-4.4.1-4.4.4-8.3.8-11.7.2-1.6.4-3.1.7-4.5,5.4-28.6,22.9-7.5,32.6,7.1,3.9,5.9,6.6,10.8,6.6,10.8Z"/>
        <path class="cls-1" d="M258.1,102.7c-36.4-15.4-39,25.5-38.1,117.8,0,6.6,0,12.8-.2,18.7,11.9,4.6,28.4,9.4,42.7,7.7,16.6-2,35.4,20.8,46.3,35.9,15.1-73.7-26.8-170-50.6-180.1Z"/>
        <path class="cls-5" d="M258.1,102.7c-2.6-1.1-5.2-2-8-2.6,7.5,11.4,27.9,46.5,32.6,79.9,4.6,32.6,7.6,54.7,6.4,62.5,3.9,3.5,7.6,7.2,11,11.2l11,8c.3-1.8.5-3.6.7-5.3,2.5-68.5-32.6-144.7-53.7-153.6Z"/>
        <path class="cls-7" d="M239.9,100.2c-19.1,5.8-20.6,46.7-19.9,120.3,0,6.6,0,12.8-.2,18.7,4,1.5,8.5,3.1,13.3,4.4-.7-13.3-2.4-31.5-4.5-57.2-3.8-45.3,4.2-82.9,11.3-86.2Z"/>
        <path class="cls-2" d="M253.5,246.9c-.4,0-.9.1-1.3.2-3.3.6-7,2.4-10.7,4.9-.5.4-1.1.8-1.6,1.1s-1.1.8-1.6,1.2c-.8.6-1.6,1.3-2.4,1.9-1.3,1.1-2.6,2.2-3.8,3.4-.3.3-.6.6-.9.8-.3.3-.5.5-.8.7-3,2.9-5.8,6-8.4,9.2-.4.5-.8,1-1.2,1.5-.4.6-.9,1.1-1.3,1.7-.1.2-.3.4-.4.6l-.5.7c-1.2,1.8-2.2,3.7-3,5.8-6.3,14.9-11.6,43-32.6,40.8-24.3-2.5-20.8-49.7,9.1-72.7,9.4-7.3,19-10.1,27.8-10.7,4.8-.3,9.5,0,14.2,1.1,11.7,2.4,19.6,7.7,19.6,7.7Z"/>
        <path class="cls-6" d="M220.1,269.8c-.6.8-1.1,1.5-1.5,1.9-.3.4-.7.9-1.3,1.7-.2.2-.3.4-.4.6l-.5.7c-1.2,1.8-2.2,3.7-3,5.8-6.3,14.8-10.9,40.7-31.6,38.9,0,0,0,0,0,0,2.6-.6,16.5-2.9,20-28.2,1.6-11,7.1-19.8,13.9-26.2,4.3-4.1,9.3-8.4,14.6-11,5-2.8,17.9-8.5,18-7.7-.5.4-10,6.2-10.5,6.6-.5.4-1.1.8-1.6,1.2,0,0-1.2.9-2.4,1.9-1.4,1.2-4.8,4.2-9.3,8.4"/>
        <path class="cls-2" d="M253.5,247.2s33-18.8,61.2,6.2c28.2,25.1,28.4,72.3,4,73.2-24.4.8-25.1-36.9-32.3-48.9-7.3-12-21.9-28.6-32.9-30.5Z"/>
        <path class="cls-6" d="M286.4,277.7c-4.9-8.1-16-27.1-26.9-30.2,15-1.6,39,23,40.3,47.6,1.4,19.3,10.2,25.9,14.8,28.6s.7.1,0,0c-20.3-3.2-21.4-34.8-28.3-46.1Z"/>
        <path class="cls-3" d="M189.3,373.4c-2.1,3.7-6.5,6.8-10.4,9-.4.2-.8.3-1.3.2h-.6c-.2-.2-.4-.3-.6-.4-2.3-1.4-18.3-11.9-10.8-23.7.3-.4.7-.7,1.2-.8,1.7-.4,3.4-.9,5-1.6.3-.1.6-.2,1-.1,2,.2,3.9.6,5.8,1.2,4.3,1.3,8.4,3.5,10.7,7.4,2,3.2,1.6,6.2,0,8.9Z"/>
      </g>
    </g>
  </g>
</svg>