<?xml version="1.0" encoding="UTF-8"?>
<svg xmlns="http://www.w3.org/2000/svg" version="1.1" viewBox="0 0 500 500">
  <defs>
    <style>
      .cls-1 {
        fill: #ff862e;
      }

      .cls-1, .cls-2 {
        stroke: #000;
        stroke-miterlimit: 10;
        stroke-width: 4px;
      }

      .cls-2 {
        fill: #005c36;
      }
    </style>
  </defs>
  <!-- Generator: Adobe Illustrator 28.7.1, SVG Export Plug-In . SVG Version: 1.2.0 Build 142)  -->
  <g>
    <g id="Layer_1">
      <path class="cls-2" d="M277.7,78c-2.6-1.9-5.6-1.4-7.7.9-3.9,4.2-7.1,9.2-10.1,14.1-3.3,5.3-6.2,10.8-8.7,16.4-1.2,2.8-2.4,5.6-3.5,8.4-.3-.8-.7-1.7-1-2.5-7-16-19.8-30.2-34.7-38.2-8.6-4.7-18.2-7.6-27.9-8.6-8.3-.9-21.8-2.7-24.9,7.5-1.1,3.7-.2,7.8,1,11.3,1.7,4.8,4,9.3,6.5,13.7,8.1,14,16.1,27.7,29.9,37,8.6,5.8,18.5,9.6,28.8,11.3,4,.7,9.2,1.6,14,1.3-.6,4.2-.9,8.5-1.1,12.8-.1,3.1,1.6,6.3,5,6.6,2.9.3,6.5-1.7,6.6-5,.2-5.7.8-11.4,1.7-17,.5-2.8,1-5.5,1.6-8.2.3-1.3.6-2.6.9-3.9.2-.7.4-1.4.5-2.1-.1.5.3-1.2.4-1.5,3.2-10.9,7.7-21.2,13.3-31.1.4-.8.9-1.5,1.3-2.3,0,0,.1-.2.2-.3.1-.2.5-.9.5-.8.8-1.3,1.6-2.6,2.5-3.9,1.8-2.7,3.8-5.3,5.6-8.1,1.6-2.4,1.6-5.9-.9-7.8Z"/>
      <path class="cls-1" d="M365.7,222.6c-7.7-11.6-17.4-22.1-28.7-30.8-36.7-28.4-83.8-34.7-127.9-22.1-55.4,15.8-99.2,62.6-93.3,122.9,5.4,55.1,48.2,98.7,102.4,106.6,36,5.3,73.3,2.4,105.9-15.1,28-15,51.6-42.1,58.7-73.5,7.1-31.2-.2-62.4-17.2-88h0Z"/>
    </g>
  </g>
</svg>