<?xml version="1.0" encoding="UTF-8"?>
<svg xmlns="http://www.w3.org/2000/svg" version="1.1" viewBox="0 0 500 500">
  <defs>
    <style>
      .cls-1 {
        fill: #508f49;
      }

      .cls-1, .cls-2, .cls-3 {
        stroke: #000;
        stroke-miterlimit: 10;
        stroke-width: 4px;
      }

      .cls-1, .cls-3 {
        isolation: isolate;
      }

      .cls-2 {
        fill: none;
      }

      .cls-3 {
        fill: #ff7661;
      }
    </style>
  </defs>
  <!-- Generator: Adobe Illustrator 28.7.1, SVG Export Plug-In . SVG Version: 1.2.0 Build 142)  -->
  <g>
    <g id="Layer_1">
      <g id="Layer_1-2" data-name="Layer_1">
        <g>
          <path class="cls-3" d="M405.9,129.7c-11.2-9.6-34.1-28.6-69.8-34.4-43.2-7-77.1,10-88.2,16.3-10.4-6-28.5-14.6-52.6-17.5h0s-31.7-3.3-61.8,6.3c-30.1,9.6-76.2,48.8-92,107.4-14,51.9,2.2,95.1,9.2,113.2,17.4,44.6,46.5,70.6,58.4,81.1,28,24.5,55.3,35.5,75.3,43.7,22.7,9.2,38.3,15.5,60,16.4,30.9,1.2,53.8-9.7,77.5-20.7,20.6-9.6,59-28,92-68.8,18.8-23.3,54.2-67.1,49.9-129.8-4.5-65.8-49.6-105.9-57.8-112.9v-.3Z"/>
          <path class="cls-2" d="M224.8,143.3"/>
          <path class="cls-2" d="M247.8,111.6c-3.8,1.5-10.4,4.6-16.5,11-5.5,5.7-8.4,11.6-9.8,15.3"/>
          <path class="cls-1" d="M240.4,107.6c-3.8-5.7,4-19.1,11.6-32,8.8-14.9,19.2-23.6,25.1-28.4,13.9-11.3,26.7-16.4,29.5-17.5,12.5-4.8,22.7-6,28.4-6.5,16.7-1.8,29.5.5,32.7,1.1,16.2,3,31.1,5.8,32.7,12,5.9,21.6-146.8,91.1-160,71.3h0Z"/>
        </g>
      </g>
    </g>
  </g>
</svg>