<?xml version="1.0" encoding="UTF-8"?>
<svg xmlns="http://www.w3.org/2000/svg" version="1.1" viewBox="0 0 500 500">
  <defs>
    <style>
      .cls-1 {
        fill: #f23d3d;
      }

      .cls-1, .cls-2 {
        isolation: isolate;
      }

      .cls-1, .cls-2, .cls-3 {
        stroke: #000;
        stroke-miterlimit: 10;
        stroke-width: 4px;
      }

      .cls-2 {
        fill: #7cb62e;
      }

      .cls-3 {
        fill: none;
      }
    </style>
  </defs>
  <!-- Generator: Adobe Illustrator 28.7.1, SVG Export Plug-In . SVG Version: 1.2.0 Build 142)  -->
  <g>
    <g id="Layer_1">
      <g id="Layer_1-2" data-name="Layer_1">
        <g>
          <path class="cls-1" d="M395,336.8c-16.2,34.7-36,57.3-51.5,74.9-11.5,13-21.1,23.7-36.8,35.2-16.7,12.2-35,25.7-57,27.4-27.6,2.2-48.3-15.1-76-38.3-.5-.4-1-.9-1.7-1.5-47.1-40.3-67.8-89-71.8-98.7-12-29.2-14.7-51.6-15.3-56.8-2.1-18.7-.7-32,0-37.9,1.8-14.2,5.2-24,6.1-26.4,1.8-5.1,4.6-12.9,10.2-21.3,13.3-20,32.4-28.5,38.9-31.3,10.7-4.6,19.9-6.1,28.7-7.6,8.8-1.4,16.2-2.7,26.1-1.8,6.2.5,7.9,1.4,19.6,2.6,5.8.6,10,.9,15.7,1.3,10.9.7,16.3,1.1,23,1.1s13.2-.5,23-1.3c8-.7,14.1-1.4,20.1-2.1,17.4-2,17.5-2.6,22.7-2.9,14.2-.7,25.3,2.7,30,4.2,19.3,6.1,31.3,17.4,36.5,22.4,5.1,4.9,17.1,17.5,24.7,37.6,7.7,20.5,6.7,38,5.7,51.1-2.2,30.3-12.2,52.1-20.6,70.2h-.3Z"/>
          <path class="cls-2" d="M344.1,119.4c-1.1-1.3-4.4-.5-10.8,1.2-3.2.8-5.4,1.4-8.4,2.5-3.6,1.4-6.5,2.9-8.9,4.2,0,0-4.2,2.2-6.8,3.9-4.7,3.2-11.1,9.5-11.7,9s5.7-6.5,9.8-16.9c1.4-3.4,2.1-6.4,2.7-8.8,1.3-5.1,1.8-9.7,2.5-15.5,0,0,.7-5.5-1.3-13.6-.2-1-.8-3.1-1.6-3.1s-1.1,2.8-3.1,6.5c-1,1.9-2.1,3.2-3,4.3-.8.9-2.7,3.2-7.2,6.6-3,2.3-2.9,1.9-6.8,4.7-2.3,1.7-5.2,3.7-8.5,6.8-1.3,1.2-3.1,2.8-5.2,5.3-.3.4-2.5,2.9-4.5,5.9l-5.9,11.4s0-.2.2-.5c0,0,0-.2.1-.3,1.5-4.1,3.6-10.6,3.9-17.1v-1.2c0-1.5,0-3.3-.4-7.5-1.2-14-1.8-21.1-3.4-29.2-.7-3.7-2.4-11.5-5.7-21.1-3.1-8.9-5.4-13.3-10.2-21.9-3.1-5.7-4.6-7.7-7.3-8.9-6.5-2.8-13.7,2.3-14.9,3.1-4.5,3.3-9.1,9.6-7.6,14.6.3.9.5.9,3.7,5,1.6,2,4.4,5.7,6.8,9.1,2.6,3.9,4.2,7,5.8,10.1,2.2,4.4,3.7,8.4,6.7,16.3,2.4,6.6,3.7,9.9,4.7,14.2.4,1.7.8,3.3,1.6,6.4.7,2.5,1.3,4.6,2.4,8.3,1.4,4.6,1.5,4.9,2,6.6.8,3.1,1.3,5.5,1.6,7.3,0,.2,0,.4.1.5-4.3-9.3-9.6-15.8-14.4-21.8-2-2.5-4.2-5-4.2-5-2.2-2.5-3.5-3.9-5.7-6.3-5.7-6.1-4.9-5.6-7.8-8.6-5-5.1-4.9-4.1-8.9-8.3-3.3-3.5-4.2-5.2-5.5-5-.9.2-2.4,1.4-2.9,9.4-.9,14.9,3.5,27.1,4.4,29.7,3.4,9.4,7.8,18.4,10.8,24.3-.8-.9-1.8-1.7-3-2.4-.9-.5-.8-.3-5-1.8-4.4-1.6-4.9-2-8.6-3.4-3.1-1.2-2.7-.9-7.8-2.6-2.2-.8-5.1-1.7-8.6-3.1-1.6-.6-1.9-.8-7.6-3.1-7.8-3.3-7.6-3.1-8.1-3.4-4.5-2.4-7.8-5.5-9.7-7.3-3.5-3.4-4.3-5-5-4.7-1.5.7,1,10.5,4.7,18.8,1,2.3,2.8,6.2,5.7,10.5,7,10.2,16.2,16.1,22.5,19.3l13.1,1.2,7.3,1.1,4.9.6,7.1.7,20,1.3,16.1.3,25.1-1.7,12.6-1.6h1.1c.7-.2,1.3-.2,1.5-.2,1.1,0,6.3-.4,13-1.1,4.9-.5,7.4-.8,8.1-1,9.8-2.6,15.4-12.2,17.9-16.4.5-.9,1-1.8,1.4-2.6,1.2-2.6,1.9-4.8,2.9-8.2.2-.8.5-1.9.9-3.3,0-.8.2-1.7.3-2.5Z"/>
          <path class="cls-3" d="M210.4,174.6"/>
        </g>
      </g>
    </g>
  </g>
</svg>