<?xml version="1.0" encoding="UTF-8"?>
<svg xmlns="http://www.w3.org/2000/svg" version="1.1" viewBox="0 0 500 500">
  <defs>
    <style>
      .cls-1 {
        fill: #087b0f;
        stroke: #000;
        stroke-miterlimit: 10;
        stroke-width: 4px;
      }

      .cls-2 {
        fill: #fff;
      }

      .cls-3 {
        fill: #ed2623;
      }

      .cls-4 {
        isolation: isolate;
      }
    </style>
  </defs>
  <!-- Generator: Adobe Illustrator 28.7.1, SVG Export Plug-In . SVG Version: 1.2.0 Build 142)  -->
  <g>
    <g id="Layer_1">
      <g id="Layer_1-2" data-name="Layer_1">
        <g class="cls-4">
          <path class="cls-1" d="M456.6,151.4c.2,26.1-6.9,51.8-6.9,51.8-.7,2.2-2.1,7-4.6,13.5-10.6,28.4-26.1,49.3-32.2,57.2-10,12.9-31.7,40.3-70.1,59.9-43.9,22.4-83.9,21.3-99.5,20.8-22.5-.9-69.4-6.3-114.4-38.9-7.6-5.5-28.8-21.7-48.3-49.4-22.1-31.4-29.9-60.2-31.4-66.2,0,0-6.1-24-6-48.4,0-.6,413.4-1.1,413.4-.1v-.2Z"/>
        </g>
        <g class="cls-4">
          <path class="cls-2" d="M435.5,153.3c.2,23.1-6.2,45.7-6.2,45.7-.7,1.9-1.9,6.2-4.1,12-9.5,25.1-23.5,43.6-28.9,50.5-9,11.4-28.4,35.6-62.9,52.9-39.4,19.8-75.4,18.9-89.3,18.3-20.2-.8-62.3-5.5-102.7-34.3-6.8-4.9-25.8-19.2-43.4-43.7-19.9-27.8-26.8-53.2-28.2-58.5,0,0-5.4-21.2-5.4-42.8s371.2-.9,371.2-.1h-.1Z"/>
        </g>
        <g class="cls-4">
          <path class="cls-3" d="M413.7,153.3c.2,20.1-5.5,39.9-5.5,39.9-1.8,5.2-8.7,29.4-29.1,54.5-6.7,8.2-24.1,27.9-53.4,43-38,19.6-72.7,19.3-80.9,19.2-10.4-.2-51.2-2.2-90.6-29.9-6-4.2-22.8-16.7-38.3-38.1-17.5-24.2-23.7-46.4-24.9-51,0,0-4.8-18.5-4.8-37.3s327.4-.8,327.4-.1v-.2Z"/>
        </g>
      </g>
    </g>
  </g>
</svg>