<?xml version="1.0" encoding="UTF-8"?>
<svg xmlns="http://www.w3.org/2000/svg" version="1.1" viewBox="0 0 500 500">
  <defs>
    <style>
      .cls-1 {
        fill: #1f8a00;
      }

      .cls-1, .cls-2 {
        stroke: #000;
        stroke-miterlimit: 10;
        stroke-width: 4px;
      }

      .cls-2 {
        fill: #724e96;
      }
    </style>
  </defs>
  <!-- Generator: Adobe Illustrator 28.7.1, SVG Export Plug-In . SVG Version: 1.2.0 Build 142)  -->
  <g>
    <g id="Layer_1">
      <g id="Layer_1-2" data-name="Layer_1">
        <g>
          <path class="cls-1" d="M271.2,198.1l-23.8-5.4,38.9-170.5c1.4-.7,7.7-3.5,15-.9,4.8,1.7,7.7,4.9,8.8,6.4-13,56.8-25.9,113.7-38.9,170.5h0Z"/>
          <path class="cls-2" d="M453.7,262.1c0-30.8-17.3-57.4-42.3-69.9.2-2.3.4-4.6.4-7,0-36.7-29.8-66.5-66.5-66.5s-55.9,20.3-63.9,48.1c-8.9-2.5-18.3-4-27.9-4.4-.4-41-33.8-74.1-74.9-74.1s-71.5,30.3-74.6,68.8c-32.7,5-57.7,33.3-57.7,67.4s14.8,49,36.6,60.4c-6.5,10.5-10.3,22.8-10.3,36.1,0,35.2,26.7,64.2,61,67.8-2.2,6.3-3.4,13-3.4,20,0,33.2,26.9,60.2,60.2,60.2s29-5.6,39.6-14.9c10.5,15.5,28.3,25.8,48.5,25.8,29.9,0,54.5-22.4,58-51.4,43.1-.7,77.9-35.8,77.9-79.1s-.7-12-2-17.8c24.6-12.6,41.5-39,41.5-69.5h-.2Z"/>
        </g>
      </g>
    </g>
  </g>
</svg>